<svg version="1.0" xmlns="http://www.w3.org/2000/svg" xmlns:xlink="http://www.w3.org/1999/xlink"
	 viewBox="0 0 100 100" enable-background="new 0 0 100 100" xml:space="preserve">
	
<svg xmlns="http://www.w3.org/2000/svg" xmlns:xlink="http://www.w3.org/1999/xlink" version="1.1" width="100" height="100" viewBox="0 0 2000 2000" shape-rendering="crispEdges" x="0" y="0"><defs><rect id="r0" width="64" height="64" fill="#000000"/></defs><rect x="0" y="0" width="2000" height="2000" fill="#ffffff"/><use x="776" y="200" xlink:href="#r0"/><use x="1096" y="200" xlink:href="#r0"/><use x="1160" y="200" xlink:href="#r0"/><use x="1224" y="200" xlink:href="#r0"/><use x="712" y="264" xlink:href="#r0"/><use x="776" y="264" xlink:href="#r0"/><use x="904" y="264" xlink:href="#r0"/><use x="968" y="264" xlink:href="#r0"/><use x="1032" y="264" xlink:href="#r0"/><use x="1096" y="264" xlink:href="#r0"/><use x="1160" y="264" xlink:href="#r0"/><use x="776" y="328" xlink:href="#r0"/><use x="840" y="328" xlink:href="#r0"/><use x="904" y="328" xlink:href="#r0"/><use x="1096" y="328" xlink:href="#r0"/><use x="1224" y="328" xlink:href="#r0"/><use x="712" y="392" xlink:href="#r0"/><use x="776" y="392" xlink:href="#r0"/><use x="904" y="392" xlink:href="#r0"/><use x="968" y="392" xlink:href="#r0"/><use x="1096" y="392" xlink:href="#r0"/><use x="1160" y="392" xlink:href="#r0"/><use x="1224" y="392" xlink:href="#r0"/><use x="840" y="456" xlink:href="#r0"/><use x="968" y="456" xlink:href="#r0"/><use x="712" y="520" xlink:href="#r0"/><use x="840" y="520" xlink:href="#r0"/><use x="968" y="520" xlink:href="#r0"/><use x="1032" y="520" xlink:href="#r0"/><use x="712" y="584" xlink:href="#r0"/><use x="840" y="584" xlink:href="#r0"/><use x="968" y="584" xlink:href="#r0"/><use x="1096" y="584" xlink:href="#r0"/><use x="1224" y="584" xlink:href="#r0"/><use x="968" y="648" xlink:href="#r0"/><use x="1032" y="648" xlink:href="#r0"/><use x="1224" y="648" xlink:href="#r0"/><use x="200" y="712" xlink:href="#r0"/><use x="264" y="712" xlink:href="#r0"/><use x="328" y="712" xlink:href="#r0"/><use x="392" y="712" xlink:href="#r0"/><use x="456" y="712" xlink:href="#r0"/><use x="584" y="712" xlink:href="#r0"/><use x="648" y="712" xlink:href="#r0"/><use x="712" y="712" xlink:href="#r0"/><use x="776" y="712" xlink:href="#r0"/><use x="840" y="712" xlink:href="#r0"/><use x="1096" y="712" xlink:href="#r0"/><use x="1160" y="712" xlink:href="#r0"/><use x="1224" y="712" xlink:href="#r0"/><use x="1288" y="712" xlink:href="#r0"/><use x="1416" y="712" xlink:href="#r0"/><use x="1544" y="712" xlink:href="#r0"/><use x="1672" y="712" xlink:href="#r0"/><use x="200" y="776" xlink:href="#r0"/><use x="328" y="776" xlink:href="#r0"/><use x="392" y="776" xlink:href="#r0"/><use x="648" y="776" xlink:href="#r0"/><use x="712" y="776" xlink:href="#r0"/><use x="776" y="776" xlink:href="#r0"/><use x="904" y="776" xlink:href="#r0"/><use x="1096" y="776" xlink:href="#r0"/><use x="1288" y="776" xlink:href="#r0"/><use x="1736" y="776" xlink:href="#r0"/><use x="200" y="840" xlink:href="#r0"/><use x="264" y="840" xlink:href="#r0"/><use x="520" y="840" xlink:href="#r0"/><use x="584" y="840" xlink:href="#r0"/><use x="712" y="840" xlink:href="#r0"/><use x="776" y="840" xlink:href="#r0"/><use x="968" y="840" xlink:href="#r0"/><use x="1032" y="840" xlink:href="#r0"/><use x="1096" y="840" xlink:href="#r0"/><use x="1160" y="840" xlink:href="#r0"/><use x="1288" y="840" xlink:href="#r0"/><use x="1352" y="840" xlink:href="#r0"/><use x="1480" y="840" xlink:href="#r0"/><use x="1608" y="840" xlink:href="#r0"/><use x="200" y="904" xlink:href="#r0"/><use x="328" y="904" xlink:href="#r0"/><use x="392" y="904" xlink:href="#r0"/><use x="456" y="904" xlink:href="#r0"/><use x="520" y="904" xlink:href="#r0"/><use x="648" y="904" xlink:href="#r0"/><use x="776" y="904" xlink:href="#r0"/><use x="840" y="904" xlink:href="#r0"/><use x="904" y="904" xlink:href="#r0"/><use x="1032" y="904" xlink:href="#r0"/><use x="1224" y="904" xlink:href="#r0"/><use x="1416" y="904" xlink:href="#r0"/><use x="264" y="968" xlink:href="#r0"/><use x="328" y="968" xlink:href="#r0"/><use x="456" y="968" xlink:href="#r0"/><use x="520" y="968" xlink:href="#r0"/><use x="584" y="968" xlink:href="#r0"/><use x="712" y="968" xlink:href="#r0"/><use x="776" y="968" xlink:href="#r0"/><use x="968" y="968" xlink:href="#r0"/><use x="1096" y="968" xlink:href="#r0"/><use x="1160" y="968" xlink:href="#r0"/><use x="1224" y="968" xlink:href="#r0"/><use x="1288" y="968" xlink:href="#r0"/><use x="1416" y="968" xlink:href="#r0"/><use x="1480" y="968" xlink:href="#r0"/><use x="1544" y="968" xlink:href="#r0"/><use x="1672" y="968" xlink:href="#r0"/><use x="1736" y="968" xlink:href="#r0"/><use x="200" y="1032" xlink:href="#r0"/><use x="392" y="1032" xlink:href="#r0"/><use x="648" y="1032" xlink:href="#r0"/><use x="712" y="1032" xlink:href="#r0"/><use x="776" y="1032" xlink:href="#r0"/><use x="840" y="1032" xlink:href="#r0"/><use x="904" y="1032" xlink:href="#r0"/><use x="968" y="1032" xlink:href="#r0"/><use x="1160" y="1032" xlink:href="#r0"/><use x="1288" y="1032" xlink:href="#r0"/><use x="1416" y="1032" xlink:href="#r0"/><use x="1480" y="1032" xlink:href="#r0"/><use x="200" y="1096" xlink:href="#r0"/><use x="392" y="1096" xlink:href="#r0"/><use x="456" y="1096" xlink:href="#r0"/><use x="584" y="1096" xlink:href="#r0"/><use x="648" y="1096" xlink:href="#r0"/><use x="1032" y="1096" xlink:href="#r0"/><use x="1096" y="1096" xlink:href="#r0"/><use x="1160" y="1096" xlink:href="#r0"/><use x="1288" y="1096" xlink:href="#r0"/><use x="1352" y="1096" xlink:href="#r0"/><use x="1480" y="1096" xlink:href="#r0"/><use x="1608" y="1096" xlink:href="#r0"/><use x="200" y="1160" xlink:href="#r0"/><use x="328" y="1160" xlink:href="#r0"/><use x="392" y="1160" xlink:href="#r0"/><use x="776" y="1160" xlink:href="#r0"/><use x="904" y="1160" xlink:href="#r0"/><use x="1224" y="1160" xlink:href="#r0"/><use x="1672" y="1160" xlink:href="#r0"/><use x="1736" y="1160" xlink:href="#r0"/><use x="200" y="1224" xlink:href="#r0"/><use x="328" y="1224" xlink:href="#r0"/><use x="456" y="1224" xlink:href="#r0"/><use x="520" y="1224" xlink:href="#r0"/><use x="584" y="1224" xlink:href="#r0"/><use x="648" y="1224" xlink:href="#r0"/><use x="1160" y="1224" xlink:href="#r0"/><use x="1224" y="1224" xlink:href="#r0"/><use x="1288" y="1224" xlink:href="#r0"/><use x="1352" y="1224" xlink:href="#r0"/><use x="1416" y="1224" xlink:href="#r0"/><use x="1480" y="1224" xlink:href="#r0"/><use x="1544" y="1224" xlink:href="#r0"/><use x="1736" y="1224" xlink:href="#r0"/><use x="712" y="1288" xlink:href="#r0"/><use x="904" y="1288" xlink:href="#r0"/><use x="1096" y="1288" xlink:href="#r0"/><use x="1160" y="1288" xlink:href="#r0"/><use x="1224" y="1288" xlink:href="#r0"/><use x="1480" y="1288" xlink:href="#r0"/><use x="1736" y="1288" xlink:href="#r0"/><use x="712" y="1352" xlink:href="#r0"/><use x="776" y="1352" xlink:href="#r0"/><use x="904" y="1352" xlink:href="#r0"/><use x="968" y="1352" xlink:href="#r0"/><use x="1032" y="1352" xlink:href="#r0"/><use x="1096" y="1352" xlink:href="#r0"/><use x="1224" y="1352" xlink:href="#r0"/><use x="1352" y="1352" xlink:href="#r0"/><use x="1480" y="1352" xlink:href="#r0"/><use x="1608" y="1352" xlink:href="#r0"/><use x="1672" y="1352" xlink:href="#r0"/><use x="1736" y="1352" xlink:href="#r0"/><use x="776" y="1416" xlink:href="#r0"/><use x="840" y="1416" xlink:href="#r0"/><use x="904" y="1416" xlink:href="#r0"/><use x="1032" y="1416" xlink:href="#r0"/><use x="1160" y="1416" xlink:href="#r0"/><use x="1224" y="1416" xlink:href="#r0"/><use x="1480" y="1416" xlink:href="#r0"/><use x="1544" y="1416" xlink:href="#r0"/><use x="712" y="1480" xlink:href="#r0"/><use x="968" y="1480" xlink:href="#r0"/><use x="1032" y="1480" xlink:href="#r0"/><use x="1096" y="1480" xlink:href="#r0"/><use x="1160" y="1480" xlink:href="#r0"/><use x="1224" y="1480" xlink:href="#r0"/><use x="1288" y="1480" xlink:href="#r0"/><use x="1352" y="1480" xlink:href="#r0"/><use x="1416" y="1480" xlink:href="#r0"/><use x="1480" y="1480" xlink:href="#r0"/><use x="1544" y="1480" xlink:href="#r0"/><use x="712" y="1544" xlink:href="#r0"/><use x="840" y="1544" xlink:href="#r0"/><use x="904" y="1544" xlink:href="#r0"/><use x="1224" y="1544" xlink:href="#r0"/><use x="1288" y="1544" xlink:href="#r0"/><use x="1416" y="1544" xlink:href="#r0"/><use x="1480" y="1544" xlink:href="#r0"/><use x="1544" y="1544" xlink:href="#r0"/><use x="1672" y="1544" xlink:href="#r0"/><use x="1736" y="1544" xlink:href="#r0"/><use x="712" y="1608" xlink:href="#r0"/><use x="840" y="1608" xlink:href="#r0"/><use x="904" y="1608" xlink:href="#r0"/><use x="968" y="1608" xlink:href="#r0"/><use x="1032" y="1608" xlink:href="#r0"/><use x="1096" y="1608" xlink:href="#r0"/><use x="1416" y="1608" xlink:href="#r0"/><use x="1480" y="1608" xlink:href="#r0"/><use x="1608" y="1608" xlink:href="#r0"/><use x="1736" y="1608" xlink:href="#r0"/><use x="712" y="1672" xlink:href="#r0"/><use x="776" y="1672" xlink:href="#r0"/><use x="840" y="1672" xlink:href="#r0"/><use x="904" y="1672" xlink:href="#r0"/><use x="968" y="1672" xlink:href="#r0"/><use x="1160" y="1672" xlink:href="#r0"/><use x="1224" y="1672" xlink:href="#r0"/><use x="1352" y="1672" xlink:href="#r0"/><use x="1480" y="1672" xlink:href="#r0"/><use x="1544" y="1672" xlink:href="#r0"/><use x="1608" y="1672" xlink:href="#r0"/><use x="1672" y="1672" xlink:href="#r0"/><use x="712" y="1736" xlink:href="#r0"/><use x="1032" y="1736" xlink:href="#r0"/><use x="1096" y="1736" xlink:href="#r0"/><use x="1224" y="1736" xlink:href="#r0"/><use x="1544" y="1736" xlink:href="#r0"/><use x="1608" y="1736" xlink:href="#r0"/><use x="1672" y="1736" xlink:href="#r0"/><use x="1736" y="1736" xlink:href="#r0"/><svg version="1.1" id="Ebene_1" x="200" y="200" width="448" height="448" viewBox="0 0 699.988 699.986" enable-background="new 0 0 699.988 699.986" xml:space="preserve" shape-rendering="auto">
<path fill="#000000" d="M600.99,0h-100h-99.997h-0.001h-99.997h-99.998h-99.998H1v99.998v99.998v99.998v99.999v99.997v99.998v99.998  h99.999h99.998h99.998h99.997h0.001h99.997h100h99.998v-99.998V499.99v-99.997v-99.999v-99.998V99.998V0H600.99z M600.99,199.996  v99.998v99.999v99.997v99.998h-100h-99.997h-0.001h-99.997h-99.998h-99.998V499.99v-99.997v-99.999v-99.998V99.998h99.998h99.998  h99.997h0.001h99.997h100V199.996z"/>
</svg>
<svg version="1.0" id="Ebene_1" x="200" y="200" width="448" height="448" viewBox="0 0 699.988 699.988" enable-background="new 0 0 699.988 699.988" xml:space="preserve" shape-rendering="auto">
<polygon fill="#000000" points="399.994,199.997 399.992,199.997 299.996,199.997 199.998,199.997 199.998,299.994 199.998,399.994   199.998,499.991 299.996,499.991 399.992,499.991 399.994,499.991 499.99,499.991 499.99,399.994 499.99,299.994 499.99,199.997 "/>
</svg>
<svg version="1.1" id="Ebene_1" x="1352" y="200" width="448" height="448" viewBox="0 0 699.988 699.986" enable-background="new 0 0 699.988 699.986" xml:space="preserve" shape-rendering="auto">
<path fill="#000000" d="M600.99,0h-100h-99.997h-0.001h-99.997h-99.998h-99.998H1v99.998v99.998v99.998v99.999v99.997v99.998v99.998  h99.999h99.998h99.998h99.997h0.001h99.997h100h99.998v-99.998V499.99v-99.997v-99.999v-99.998V99.998V0H600.99z M600.99,199.996  v99.998v99.999v99.997v99.998h-100h-99.997h-0.001h-99.997h-99.998h-99.998V499.99v-99.997v-99.999v-99.998V99.998h99.998h99.998  h99.997h0.001h99.997h100V199.996z"/>
</svg>
<svg version="1.0" id="Ebene_1" x="1352" y="200" width="448" height="448" viewBox="0 0 699.988 699.988" enable-background="new 0 0 699.988 699.988" xml:space="preserve" shape-rendering="auto">
<polygon fill="#000000" points="399.994,199.997 399.992,199.997 299.996,199.997 199.998,199.997 199.998,299.994 199.998,399.994   199.998,499.991 299.996,499.991 399.992,499.991 399.994,499.991 499.99,499.991 499.99,399.994 499.99,299.994 499.99,199.997 "/>
</svg>
<svg version="1.1" id="Ebene_1" x="200" y="1352" width="448" height="448" viewBox="0 0 699.988 699.986" enable-background="new 0 0 699.988 699.986" xml:space="preserve" shape-rendering="auto">
<path fill="#000000" d="M600.99,0h-100h-99.997h-0.001h-99.997h-99.998h-99.998H1v99.998v99.998v99.998v99.999v99.997v99.998v99.998  h99.999h99.998h99.998h99.997h0.001h99.997h100h99.998v-99.998V499.99v-99.997v-99.999v-99.998V99.998V0H600.99z M600.99,199.996  v99.998v99.999v99.997v99.998h-100h-99.997h-0.001h-99.997h-99.998h-99.998V499.99v-99.997v-99.999v-99.998V99.998h99.998h99.998  h99.997h0.001h99.997h100V199.996z"/>
</svg>
<svg version="1.0" id="Ebene_1" x="200" y="1352" width="448" height="448" viewBox="0 0 699.988 699.988" enable-background="new 0 0 699.988 699.988" xml:space="preserve" shape-rendering="auto">
<polygon fill="#000000" points="399.994,199.997 399.992,199.997 299.996,199.997 199.998,199.997 199.998,299.994 199.998,399.994   199.998,499.991 299.996,499.991 399.992,499.991 399.994,499.991 499.99,499.991 499.99,399.994 499.99,299.994 499.99,199.997 "/>
</svg>
</svg>

</svg>
